<svg width="67" height="67" viewBox="0 0 67 67" fill="none" xmlns="http://www.w3.org/2000/svg">
<g clip-path="url(#clip0_120_18485)">
<mask id="mask0_120_18485" style="mask-type:luminance" maskUnits="userSpaceOnUse" x="0" y="0" width="67" height="67">
<path d="M66.7105 0.0012207H0.000976562V66.7108H66.7105V0.0012207Z" fill="white"/>
<path d="M30.6671 4.17483C32.433 3.73469 34.2814 3.73469 36.0472 4.17483C38.0457 4.67321 39.8836 5.95937 43.5579 8.53147L53.566 15.5374C56.3425 17.481 57.7306 18.4536 58.7343 19.7149C59.6232 20.8321 60.2886 22.1109 60.6942 23.4798C61.152 25.0255 61.1528 26.7211 61.1528 30.1111V43.363C61.1528 49.5889 61.1536 52.7029 59.9423 55.0811C58.8764 57.1727 57.175 58.8738 55.0834 59.9398C52.8511 61.0772 49.9698 61.1436 44.4754 61.1478V47.2555C44.4754 43.3636 44.4754 41.4156 43.718 39.9291C43.0517 38.6219 41.988 37.5604 40.6808 36.8944C39.1943 36.137 37.2488 36.1372 33.3572 36.1372C29.4655 36.1372 27.5201 36.137 26.0337 36.8944C24.7264 37.5604 23.6625 38.6219 22.9962 39.9291C22.2389 41.4156 22.2389 43.3636 22.2389 47.2555V61.1478C16.7445 61.1436 13.8633 61.0772 11.631 59.9398C9.53947 58.8738 7.8379 57.1727 6.77216 55.0811C5.56075 52.7029 5.56152 49.5889 5.56152 43.363V30.1111C5.56152 26.7211 5.56241 25.0255 6.02026 23.4798C6.42577 22.1109 7.09123 20.8321 7.98008 19.7149C8.98375 18.4536 10.3718 17.481 13.1483 15.5374L23.1564 8.53147C26.8308 5.95937 28.6686 4.67321 30.6671 4.17483Z" fill="black"/>
</mask>
<g mask="url(#mask0_120_18485)">
<path d="M18.0693 47.2566V59.7646L22.2387 61.1544H44.4752L48.6445 59.7646V47.2566C48.6445 43.3774 48.6445 41.4381 48.1659 39.8599C47.088 36.3065 44.307 33.5256 40.7536 32.4476C39.1754 31.969 37.2361 31.969 33.3569 31.969C29.4778 31.969 27.5384 31.969 25.9601 32.4476C22.4067 33.5256 19.626 36.3065 18.5481 39.8599C18.0693 41.4381 18.0693 43.3774 18.0693 47.2566Z" fill="url(#paint0_linear_120_18485)"/>
</g>
<mask id="mask1_120_18485" style="mask-type:luminance" maskUnits="userSpaceOnUse" x="5" y="3" width="57" height="59">
<path d="M30.6661 4.17361C32.432 3.73347 34.2804 3.73347 36.0463 4.17361C38.0448 4.67199 39.8826 5.95815 43.5569 8.53025L53.565 15.5362C56.3415 17.4798 57.7296 18.4523 58.7333 19.7137C59.6222 20.8308 60.2877 22.1097 60.6932 23.4785C61.151 25.0243 61.1518 26.7199 61.1518 30.1099V43.3618C61.1518 49.5877 61.1527 52.7017 59.9413 55.0799C58.8754 57.1715 57.174 58.8726 55.0824 59.9385C52.8501 61.0759 49.9688 61.1424 44.4744 61.1465V47.2543C44.4744 43.3623 44.4744 41.4144 43.717 39.9279C43.0508 38.6207 41.987 37.5592 40.6798 36.8932C39.1933 36.1357 37.2479 36.136 33.3562 36.136C29.4645 36.136 27.5191 36.1357 26.0327 36.8932C24.7254 37.5592 23.6615 38.6207 22.9953 39.9279C22.2379 41.4144 22.2379 43.3623 22.2379 47.2543V61.1465C16.7436 61.1424 13.8624 61.0759 11.63 59.9385C9.53849 58.8726 7.83693 57.1715 6.77119 55.0799C5.55977 52.7017 5.56055 49.5877 5.56055 43.3618V30.1099C5.56055 26.7199 5.56144 25.0243 6.01929 23.4785C6.4248 22.1097 7.09025 20.8308 7.9791 19.7137C8.98277 18.4523 10.3708 17.4798 13.1473 15.5362L23.1554 8.53025C26.8299 5.95815 28.6676 4.67199 30.6661 4.17361Z" fill="white"/>
</mask>
<g mask="url(#mask1_120_18485)">
<g filter="url(#filter0_f_120_18485)">
<path d="M18.0693 47.2507V59.7588L22.2387 61.1486H44.4752L48.6445 59.7588V47.2507C48.6445 43.3716 48.6445 41.4323 48.1659 39.854C47.088 36.3006 44.307 33.5197 40.7536 32.4418C39.1754 31.9631 37.2361 31.9631 33.3569 31.9631C29.4778 31.9631 27.5384 31.9631 25.9601 32.4418C22.4067 33.5197 19.626 36.3006 18.5481 39.854C18.0693 41.4323 18.0693 43.3716 18.0693 47.2507Z" fill="url(#paint1_linear_120_18485)"/>
</g>
</g>
<path d="M30.6661 4.1741C32.432 3.73396 34.2804 3.73396 36.0463 4.1741C38.0448 4.67248 39.8826 5.95864 43.5569 8.53074L53.565 15.5367C56.3415 17.4802 57.7296 18.4528 58.7333 19.7141C59.6222 20.8313 60.2877 22.1102 60.6932 23.479C61.151 25.0248 61.1518 26.7203 61.1518 30.1104V43.3623C61.1518 49.5882 61.1527 52.7022 59.9413 55.0803C58.8754 57.172 57.174 58.8731 55.0824 59.939C52.8501 61.0764 49.9688 61.1429 44.4744 61.147V47.2548C44.4744 43.3628 44.4744 41.4149 43.717 39.9284C43.0508 38.6212 41.987 37.5596 40.6798 36.8937C39.1933 36.1362 37.2479 36.1365 33.3562 36.1365C29.4645 36.1365 27.5191 36.1362 26.0327 36.8937C24.7254 37.5596 23.6615 38.6212 22.9953 39.9284C22.2379 41.4149 22.2379 43.3628 22.2379 47.2548V61.147C16.7436 61.1429 13.8624 61.0764 11.63 59.939C9.53849 58.8731 7.83693 57.172 6.77119 55.0803C5.55977 52.7022 5.56055 49.5882 5.56055 43.3623V30.1104C5.56055 26.7203 5.56144 25.0248 6.01929 23.479C6.4248 22.1102 7.09025 20.8313 7.9791 19.7141C8.98277 18.4528 10.3708 17.4802 13.1473 15.5367L23.1554 8.53074C26.8299 5.95864 28.6676 4.67248 30.6661 4.1741Z" fill="url(#paint2_linear_120_18485)"/>
<path d="M59.0642 30.1105C59.0642 26.5962 59.0439 25.2584 58.6923 24.0708C58.3629 22.9584 57.8207 21.919 57.0991 21.0116C56.3277 20.0425 55.2462 19.2589 52.3677 17.244L42.3596 10.2381C38.5441 7.56726 37.0718 6.57873 35.5383 6.19635C34.104 5.83889 32.6025 5.83889 31.1682 6.19635C29.6348 6.57873 28.1624 7.56726 24.3468 10.2381L14.3388 17.244C11.4604 19.2589 10.3787 20.0425 9.60753 21.0116C8.88573 21.919 8.34371 22.9584 8.01417 24.0708C7.66261 25.2584 7.64229 26.5962 7.64229 30.1105V43.3621C7.64229 46.5088 7.64351 48.7436 7.78616 50.493C7.92686 52.2178 8.19403 53.2868 8.62492 54.1329L8.97506 54.7547C9.84296 56.1692 11.0873 57.3219 12.5744 58.0799C12.803 58.196 13.4425 58.3801 14.5396 58.5465C15.5579 58.7014 16.7499 58.8128 17.9082 58.8912C19.0608 58.9696 20.1508 59.0135 20.9538 59.038C21.3545 59.0499 21.6831 59.0555 21.9093 59.0597C22.0215 59.0616 22.1086 59.0644 22.1672 59.0649H44.5393C44.598 59.0644 44.685 59.0616 44.7973 59.0597C45.0235 59.0555 45.3521 59.0499 45.7526 59.038C46.5556 59.0135 47.6458 58.9696 48.7982 58.8912C49.9567 58.8128 51.1486 58.7014 52.167 58.5465C53.2638 58.3801 53.9034 58.196 54.1322 58.0799C55.8316 57.2135 57.2158 55.8323 58.0817 54.1329L58.2337 53.8046C58.5756 53.0097 58.7971 52.0029 58.9202 50.493C59.0631 48.7436 59.0642 46.5088 59.0642 43.3621V30.1105ZM61.1489 43.3621L61.13 47.4853C61.0733 51.0987 60.8468 53.2968 59.9384 55.0804L59.5095 55.8456C58.4411 57.5868 56.9092 59.0066 55.0794 59.9391L54.5936 60.1401C51.836 61.0851 44.479 61.1496 44.4715 61.1496H22.235C22.2275 61.1496 14.8705 61.0851 12.1129 60.1401L11.627 59.9391C9.79723 59.0066 8.26536 57.5868 7.19712 55.8456L6.76826 55.0804C5.85978 53.2968 5.63322 51.0987 5.57663 47.4853L5.55762 43.3621V30.1105C5.55762 27.1444 5.55756 25.4744 5.86434 24.0681L6.01636 23.479C6.37111 22.2816 6.92502 21.1521 7.65316 20.1403L7.97617 19.7141C8.72888 18.7682 9.69808 17.984 11.3068 16.8314L13.1444 15.5367L23.1525 8.53074C26.3675 6.28023 28.176 5.01192 29.9169 4.39669L30.6632 4.1741C32.4291 3.73396 34.2775 3.73396 36.0433 4.1741C38.0416 4.67253 39.8797 5.95875 43.554 8.53074L53.5621 15.5367C56.3383 17.48 57.7267 18.4529 58.7304 19.7141C59.619 20.8312 60.2847 22.1105 60.6903 23.479C61.1478 25.0245 61.1489 26.721 61.1489 30.1105V43.3621Z" fill="url(#paint3_linear_120_18485)"/>
</g>
<defs>
<filter id="filter0_f_120_18485" x="6.95108" y="20.8449" width="52.8117" height="51.4221" filterUnits="userSpaceOnUse" color-interpolation-filters="sRGB">
<feFlood flood-opacity="0" result="BackgroundImageFix"/>
<feBlend mode="normal" in="SourceGraphic" in2="BackgroundImageFix" result="shape"/>
<feGaussianBlur stdDeviation="5.55913" result="effect1_foregroundBlur_120_18485"/>
</filter>
<linearGradient id="paint0_linear_120_18485" x1="33.3569" y1="31.969" x2="33.3569" y2="61.1544" gradientUnits="userSpaceOnUse">
<stop stop-color="white" stop-opacity="0.9"/>
<stop offset="1" stop-color="white"/>
</linearGradient>
<linearGradient id="paint1_linear_120_18485" x1="33.3569" y1="31.9631" x2="33.3569" y2="61.1486" gradientUnits="userSpaceOnUse">
<stop stop-color="white" stop-opacity="0.9"/>
<stop offset="1" stop-color="white"/>
</linearGradient>
<linearGradient id="paint2_linear_120_18485" x1="33.3562" y1="3.8452" x2="33.3562" y2="61.1459" gradientUnits="userSpaceOnUse">
<stop stop-color="white" stop-opacity="0"/>
<stop offset="1" stop-color="white" stop-opacity="0.4"/>
</linearGradient>
<linearGradient id="paint3_linear_120_18485" x1="33.3533" y1="3.84417" x2="33.3533" y2="37.0294" gradientUnits="userSpaceOnUse">
<stop stop-color="white"/>
<stop offset="1" stop-color="white" stop-opacity="0"/>
</linearGradient>
<clipPath id="clip0_120_18485">
<rect width="66.7095" height="66.7095" fill="white"/>
</clipPath>
</defs>
</svg>
